PathFileType	4	(X/Y/Z)	Patient4_TMGait_0pt4_03_right_10.trc.trc
DataRate	CameraRate	NumFrames	NumMarkers	Units	OrigDataRate	OrigDataStartFrame	OrigNumFrames
75.268817204301	75.268817204301	4	33	mm	75.268817204301	71	       141
Frame#	Time	Sacral			L.Shoulder			Chest			R.Shoulder			Neck			R.ASIS			L.ASIS			R.Thigh.Superior			R.Thigh.Lateral			R.Thigh.Inferior			R.Patella			L.Thigh.Superior			L.Thigh.Lateral			L.Thigh.Inferior			L.Patella			L.Shank.Superior			L.Shank.Lateral			L.Shank.Inferior			R.Shank.Superior			R.Shank.Lateral			R.Shank.Inferior			R.Heel			R.Midfoot.Superior			R.Midfoot.Lateral			R.Toe			L.Heel			L.Midfoot.Lateral			L.Midfoot.Superior			L.Toe			L.Elbow			L.Wrist			R.Elbow			R.Wrist			
		X1	Y1	Z1	X2	Y2	Z2	X3	Y3	Z3	X4	Y4	Z4	X5	Y5	Z5	X6	Y6	Z6	X7	Y7	Z7	X8	Y8	Z8	X9	Y9	Z9	X10	Y10	Z10	X11	Y11	Z11	X12	Y12	Z12	X13	Y13	Z13	X14	Y14	Z14	X15	Y15	Z15	X16	Y16	Z16	X17	Y17	Z17	X18	Y18	Z18	X19	Y19	Z19	X20	Y20	Z20	X21	Y21	Z21	X22	Y22	Z22	X23	Y23	Z23	X24	Y24	Z24	X25	Y25	Z25	X26	Y26	Z26	X27	Y27	Z27	X28	Y28	Z28	X29	Y29	Z29	X30	Y30	Z30	X31	Y31	Z31	X32	Y32	Z32	X33	Y33	Z33	

71	13.010000000000	823.116488155685	1008.868060603072	517.285690296812	978.894331577208	1429.095649715293	309.862152232411	1107.945690361889	1360.142838137628	450.655592913439	1058.805208794001	1435.388097705070	636.596874993251	983.300628360006	1490.239397886120	466.989216675061	1060.516253944836	933.555559905840	603.188444003723	1014.687138745289	958.341575652849	331.867880733854	1056.188948729729	722.816810251746	576.360875803026	958.484171862522	629.162142714315	647.517866658750	1013.370936970669	564.010828205181	563.689305667500	997.906826791094	480.539200504154	571.299871292881	1085.297476814161	767.924455004100	357.336677456256	1024.517196704944	640.700799433659	284.741536071006	1128.188414995413	578.439136257208	340.538633725862	1149.401650384780	512.911679883440	338.882005805354	1129.967944362446	441.283644550676	327.514244932814	1056.856472864436	315.429773031443	277.079662973171	1140.238659999166	211.574668154348	327.950255309505	960.752505993244	396.155834998757	580.507472277774	882.175946589372	300.552006040604	646.791807518876	910.162598861406	201.538288419502	582.035508782814	763.810448187394	42.665918943455	555.327293291713	934.006952772379	95.337101623043	591.971589691095	846.226309356555	36.161395376512	630.296999200149	1054.608117579763	42.164362338690	621.444471897392	1048.213898383178	42.367018958285	366.766183571141	1121.433444765849	40.234282872425	286.209885809842	1199.189246602760	109.432110863892	307.923441095954	1329.450172644116	67.966601340058	280.323234413860	842.763273670299	1096.362708892830	233.242517584530	827.614375100526	834.555349258634	243.983412665377	1196.717380068154	1127.937206587393	760.835584184053	1430.243826328702	1185.667834887150	685.151234053341	
72	13.023285714286	824.188484732507	1007.749809609616	514.037534369507	979.234479966433	1427.959692996347	306.392668753734	1108.121576864852	1359.698718577656	447.648435758529	1058.076535140159	1434.808004227414	633.434419291958	983.025293104574	1489.331397463833	463.602779311295	1061.508925161184	932.946205090755	601.114225144090	1016.666518001382	956.905428098311	329.687758537518	1056.619390185533	721.820373407065	574.827439545327	958.071170059720	628.603604465231	645.852681635552	1012.691652129658	562.941300879620	562.305736805337	996.716112484427	479.184841587999	569.807451329771	1087.439262412593	766.058387631869	355.856265892783	1024.974219214140	638.556103160153	285.012323775563	1128.602655089517	576.485052077826	341.028888364124	1148.353276091868	509.814190748672	340.390575565831	1128.132316715406	437.754140660020	328.982400190151	1052.716985761585	313.126561369178	278.810249980629	1133.486014227336	207.780108185936	330.592766370378	958.600145121852	395.226684243213	579.258600800378	879.162992058337	300.592774966716	646.071228519806	906.008213097705	201.116746624705	581.547056189876	758.471454001705	42.824364225717	555.417568807141	928.704426102423	95.325607715539	591.916262976707	840.906719643383	36.155685714260	630.313514868990	1049.264298146925	41.969922397910	621.488034940878	1037.496270955017	41.065169163027	369.428625252602	1110.476370316777	38.256086825323	288.527005973763	1189.871984809739	105.196745290947	311.138446442031	1319.465591095281	60.974813266312	282.678864563322	843.979779578760	1094.941201637133	229.922385368177	829.118967254168	833.132575482640	241.093589850905	1195.841400668353	1126.703753210256	757.212838330184	1429.562054321302	1184.231014823836	681.711148282513	
73	13.036571428571	825.277733345830	1006.709037961736	510.718113142269	979.652207436542	1426.871593944642	302.756314753992	1108.319845024063	1359.384516250571	444.561575249558	1057.268524066054	1434.415623687984	630.144868655954	982.757703903786	1488.550387476925	460.043858263777	1062.554154648939	932.442684655175	599.006462573910	1018.683703069627	955.669128458803	327.509849939277	1057.414295460985	720.944053441665	573.248319266099	958.114392575461	628.045386356053	644.044836550338	1012.597331327059	561.914019488527	560.798097130824	996.153260179162	477.755205390359	568.199195860743	1089.617897445093	764.342321383455	354.512780094234	1025.750851550632	636.889970097379	284.945472133820	1129.083761155582	574.820519640285	341.502488519199	1147.367828843104	507.081876854101	341.688729461325	1126.518779461114	434.676975461138	330.096124034018	1049.201154357233	311.208811038865	279.821030464475	1127.327699728862	204.508685585389	332.700773390934	956.933079441697	394.263290213946	577.905029413265	876.500657298759	300.749806929387	645.273015013347	902.075622887663	200.767115862970	581.033693777999	753.159503355325	43.222959247583	555.539093383522	923.493352679563	95.367302967226	591.881624369958	835.630251065958	36.248972339374	630.337264438942	1043.957875134571	41.701006345481	621.540132287247	1027.647244181861	39.929695392953	371.312290840893	1100.472706796653	36.760763985424	290.141548480893	1181.185835305620	101.764330363285	313.752279030886	1310.282227207588	55.311335437638	284.554302418815	845.957472264755	1093.276877705363	226.170472776596	831.896389404960	831.440225390695	237.557337204353	1194.295695238868	1125.324835394616	753.619212415297	1428.601825694799	1181.534472061489	678.556013630906	
74	13.049857142857	826.355590016911	1005.824422734846	507.380341371994	980.142616015856	1425.900896507967	299.002242867828	1108.546781207093	1359.232529591029	441.417340839092	1056.444382998189	1434.273179465818	626.746421584194	982.513483221824	1487.955714594122	456.347311148131	1063.607833273016	932.095356711418	596.842457948840	1020.643299724101	954.717759621936	325.299302440439	1058.514420973634	720.248860031125	571.589801232770	958.604910488484	627.531746605900	642.090164855824	1013.103314612846	560.985349037947	559.169482965191	996.260067900488	476.288646606636	566.528563935874	1091.732347832701	762.917361105597	353.262218295080	1026.850945381126	635.793743856742	284.446173598282	1129.627337448523	573.542651984648	341.802575589397	1146.497841962087	504.852704898924	342.588563906545	1125.184878651425	432.178514322805	330.750728590930	1046.419110682732	309.755700815938	280.053346779108	1121.934281912432	201.893681119577	334.201988321570	955.783264697911	393.312611963842	576.489262352107	874.197068418824	301.083026752957	644.408826403014	898.393344218556	200.548479730662	580.521506607237	747.890313611024	43.959842698415	555.694419759385	918.412658193219	95.481269841763	591.882185044709	830.410115214764	36.491097555469	630.368508556676	1038.699251984189	41.354848444008	621.599040107379	1018.945890946658	39.037616491171	372.461590939445	1091.697183170804	35.752739759104	291.104374724943	1173.381874284876	99.223968266621	315.691758569673	1302.148046492306	51.090449792588	285.922928526841	848.702205067111	1091.447626740328	222.021371938016	835.941237203525	829.557969720022	233.396568525858	1192.076116816255	1123.858461240759	750.052088035244	1427.339256465916	1177.528764535191	675.665151043324	
